<?xml version="1.0" encoding="UTF-8" standalone="no"?>
<svg viewBox="0 0 362.84 362.84" height="362.84" width="362.84" xml:space="preserve" id="svg2" version="1.1" preserveAspectRatio="xMidYMid meet" sodipodi:docname="R5.svg" inkscape:version="1.2.1 (9c6d41e410, 2022-07-14)" xmlns:inkscape="http://www.inkscape.org/namespaces/inkscape" xmlns:sodipodi="http://sodipodi.sourceforge.net/DTD/sodipodi-0.dtd" xmlns="http://www.w3.org/2000/svg" xmlns:svg="http://www.w3.org/2000/svg" xmlns:rdf="http://www.w3.org/1999/02/22-rdf-syntax-ns#" xmlns:cc="http://creativecommons.org/ns#" xmlns:dc="http://purl.org/dc/elements/1.1/">
  <sodipodi:namedview id="namedview82" pagecolor="#ffffff" bordercolor="#666666" borderopacity="1.0" inkscape:showpageshadow="2" inkscape:pageopacity="0.0" inkscape:pagecheckerboard="0" inkscape:deskcolor="#d1d1d1" showgrid="false" inkscape:zoom="2.2434131" inkscape:cx="71.097026" inkscape:cy="181.42" inkscape:window-width="3840" inkscape:window-height="2081" inkscape:window-x="3831" inkscape:window-y="-9" inkscape:window-maximized="1" inkscape:current-layer="layer1" />
  <metadata id="metadata8">
    <rdf:RDF>
      <cc:Work rdf:about="">
        <dc:format>image/svg+xml</dc:format>
        <dc:type rdf:resource="http://purl.org/dc/dcmitype/StillImage" />
      </cc:Work>
    </rdf:RDF>
  </metadata>
  <defs id="defs6">
    <clipPath id="clipPath124" clipPathUnits="userSpaceOnUse">
      <path id="path122" d="M 0,272.13 H 272.13 V 0 H 0 Z" />
    </clipPath>
    <clipPath clipPathUnits="userSpaceOnUse" id="clipPath517">
      <g id="g521" transform="matrix(0.75000002,0,0,-0.75000002,-22.373,232.50211)">
        <path id="path519" d="M 0,9.071e-6 H 362.83999 V 362.84 H 0 Z" style="stroke-width:1.33333" />
      </g>
    </clipPath>
    <clipPath clipPathUnits="userSpaceOnUse" id="clipPath523">
      <g id="g527" transform="matrix(0.75000002,0,0,-0.75000002,-64.0391,232.50111)">
        <path id="path525" d="M 0,9.071e-6 H 362.83999 V 362.84 H 0 Z" style="stroke-width:1.33333" />
      </g>
    </clipPath>
    <clipPath clipPathUnits="userSpaceOnUse" id="clipPath529">
      <g id="g533" transform="matrix(0.75000002,0,0,-0.75000002,-44.6475,108.24521)">
        <path id="path531" d="M 0,9.071e-6 H 362.83999 V 362.84 H 0 Z" style="stroke-width:1.33333" />
      </g>
    </clipPath>
    <clipPath clipPathUnits="userSpaceOnUse" id="clipPath535">
      <g id="g539" transform="matrix(0.75000002,0,0,-0.75000002,-21.5547,91.42201)">
        <path id="path537" d="M 0,9.071e-6 H 362.83999 V 362.84 H 0 Z" style="stroke-width:1.33333" />
      </g>
    </clipPath>
    <clipPath clipPathUnits="userSpaceOnUse" id="clipPath541">
      <g id="g545" transform="matrix(0.75000002,0,0,-0.75000002,-21.5547,91.42201)">
        <path id="path543" d="M 0,9.071e-6 H 362.83999 V 362.84 H 0 Z" style="stroke-width:1.33333" />
      </g>
    </clipPath>
    <clipPath clipPathUnits="userSpaceOnUse" id="clipPath547">
      <g id="g551" transform="matrix(0.75000002,0,0,-0.75000002,-234.3145,108.24521)">
        <path id="path549" d="M 0,9.071e-6 H 362.83999 V 362.84 H 0 Z" style="stroke-width:1.33333" />
      </g>
    </clipPath>
    <clipPath clipPathUnits="userSpaceOnUse" id="clipPath553">
      <g id="g557" transform="matrix(0.75000002,0,0,-0.75000002,-211.2217,91.42201)">
        <path id="path555" d="M 0,9.071e-6 H 362.83999 V 362.84 H 0 Z" style="stroke-width:1.33333" />
      </g>
    </clipPath>
    <clipPath clipPathUnits="userSpaceOnUse" id="clipPath559">
      <g id="g563" transform="matrix(0.75000002,0,0,-0.75000002,-211.2217,91.42201)">
        <path id="path561" d="M 0,9.071e-6 H 362.83999 V 362.84 H 0 Z" style="stroke-width:1.33333" />
      </g>
    </clipPath>
    <clipPath clipPathUnits="userSpaceOnUse" id="clipPath565">
      <g id="g569" transform="matrix(0.75000002,0,0,-0.75000002,-178.6494,50.578707)">
        <path id="path567" d="M 0,9.071e-6 H 362.83999 V 362.84 H 0 Z" style="stroke-width:1.33333" />
      </g>
    </clipPath>
    <clipPath clipPathUnits="userSpaceOnUse" id="clipPath571">
      <g id="g575" transform="matrix(0.75000002,0,0,-0.75000002,-155.5566,33.755507)">
        <path id="path573" d="M 0,9.071e-6 H 362.83999 V 362.84 H 0 Z" style="stroke-width:1.33333" />
      </g>
    </clipPath>
    <clipPath clipPathUnits="userSpaceOnUse" id="clipPath577">
      <g id="g581" transform="matrix(0.75000002,0,0,-0.75000002,-155.5566,33.755507)">
        <path id="path579" d="M 0,9.071e-6 H 362.83999 V 362.84 H 0 Z" style="stroke-width:1.33333" />
      </g>
    </clipPath>
    <clipPath clipPathUnits="userSpaceOnUse" id="clipPath583">
      <g id="g587" transform="matrix(0.75000002,0,0,-0.75000002,-227.8135,165.95031)">
        <path id="path585" d="M 0,9.071e-6 H 362.83999 V 362.84 H 0 Z" style="stroke-width:1.33333" />
      </g>
    </clipPath>
    <clipPath clipPathUnits="userSpaceOnUse" id="clipPath589">
      <g id="g593" transform="matrix(0.75000002,0,0,-0.75000002,-250.9062,182.77361)">
        <path id="path591" d="M 0,9.071e-6 H 362.83999 V 362.84 H 0 Z" style="stroke-width:1.33333" />
      </g>
    </clipPath>
    <clipPath clipPathUnits="userSpaceOnUse" id="clipPath595">
      <g id="g599" transform="matrix(0.75000002,0,0,-0.75000002,-250.9062,182.77361)">
        <path id="path597" d="M 0,9.071e-6 H 362.83999 V 362.84 H 0 Z" style="stroke-width:1.33333" />
      </g>
    </clipPath>
    <clipPath clipPathUnits="userSpaceOnUse" id="clipPath601">
      <g id="g605" transform="matrix(0.75000002,0,0,-0.75000002,-38.1465,165.95031)">
        <path id="path603" d="M 0,9.071e-6 H 362.83999 V 362.84 H 0 Z" style="stroke-width:1.33333" />
      </g>
    </clipPath>
    <clipPath clipPathUnits="userSpaceOnUse" id="clipPath607">
      <g id="g611" transform="matrix(0.75000002,0,0,-0.75000002,-61.2393,182.77361)">
        <path id="path609" d="M 0,9.071e-6 H 362.83999 V 362.84 H 0 Z" style="stroke-width:1.33333" />
      </g>
    </clipPath>
    <clipPath clipPathUnits="userSpaceOnUse" id="clipPath613">
      <g id="g617" transform="matrix(0.75000002,0,0,-0.75000002,-61.2393,182.77361)">
        <path id="path615" d="M 0,9.071e-6 H 362.83999 V 362.84 H 0 Z" style="stroke-width:1.33333" />
      </g>
    </clipPath>
    <clipPath clipPathUnits="userSpaceOnUse" id="clipPath619">
      <g id="g623" transform="matrix(0.75000002,0,0,-0.75000002,-95.812502,32.948807)">
        <path id="path621" d="M 0,9.071e-6 H 362.83999 V 362.84 H 0 Z" style="stroke-width:1.33333" />
      </g>
    </clipPath>
    <clipPath clipPathUnits="userSpaceOnUse" id="clipPath625">
      <g id="g629" transform="matrix(0.75000002,0,0,-0.75000002,-118.9053,49.772106)">
        <path id="path627" d="M 0,9.071e-6 H 362.83999 V 362.84 H 0 Z" style="stroke-width:1.33333" />
      </g>
    </clipPath>
    <clipPath clipPathUnits="userSpaceOnUse" id="clipPath631">
      <g id="g635" transform="matrix(0.75000002,0,0,-0.75000002,-118.9053,49.772106)">
        <path id="path633" d="M 0,9.071e-6 H 362.83999 V 362.84 H 0 Z" style="stroke-width:1.33333" />
      </g>
    </clipPath>
  </defs>
  <g inkscape:groupmode="layer" id="layer1" inkscape:label="Layer 1">
    <path id="path12" style="display:inline;fill:#2b2b2a;fill-opacity:1;fill-rule:nonzero;stroke:none;stroke-width:1.33333" d="M 0,362.84 H 362.83999 V 9.071e-6 H 0 Z" inkscape:label="PanelColor" />
    <path d="m 116.63948,168.57293 v -14.38176 l -28.763522,28.76352 28.763522,28.76352 V 197.33645 H 145.403 v -28.76352 z" style="fill:#fffafa;stroke:#000000;stroke-width:0;stroke-dasharray:none;stroke-miterlimit:3.8;stroke-linejoin:round;stroke-linecap:round" id="L" inkscape:label="#L" />
    <path d="m 247.01146,168.29328 v -14.38176 l 28.76352,28.76352 -28.76352,28.76352 V 197.0568 h -28.76352 v -28.76352 z" style="fill:#fffafa;stroke:#000000;stroke-width:0;stroke-dasharray:none;stroke-miterlimit:3.8;stroke-linejoin:round;stroke-linecap:round" id="R" inkscape:label="#R" />
    <path d="m 196.02209,236.28773 h 14.38176 l -28.76352,28.76352 -28.76352,-28.76352 h 14.38176 v -28.76352 h 28.76352 z" style="fill:#fffafa;stroke:#000000;stroke-width:0;stroke-dasharray:none;stroke-miterlimit:3.8;stroke-linejoin:round;stroke-linecap:round" id="D" inkscape:label="#D" />
    <path d="m 196.02269,127.73324 h 14.38176 L 181.64093,98.969721 152.87741,127.73324 h 14.38176 v 28.76352 h 28.76352 z" style="fill:#fffafa;stroke:#000000;stroke-width:0;stroke-dasharray:none;stroke-miterlimit:3.8;stroke-linejoin:round;stroke-linecap:round" id="U" inkscape:label="#U" />
    <g id="g669" inkscape:label="Logo"><text id="text16" style="font-variant:normal;font-weight:500;font-stretch:normal;font-size:10.6667px;font-family:'Futura LT Pro Medium';-inkscape-font-specification:FuturaLTPro-Medium;writing-mode:lr-tb;fill:#ffffff;fill-opacity:1;fill-rule:nonzero;stroke:none;stroke-width:1.33333" x="228.31573" y="351.4552">
        <tspan id="tspan14" y="351.4552" x="228.31573 236.68906 242.44907 246.61867 254.27733 260.20801" style="stroke-width:1.33333">Norway</tspan>
      </text>
      <g clip-path="url(#clipPath124)" id="g120" transform="matrix(1.3333333,0,0,-1.3333333,0,362.84)">
        <g transform="translate(241.2861,24.2754)" id="g126">
          <path id="path128" style="fill:#ffffff;fill-opacity:1;fill-rule:nonzero;stroke:none" d="m 0,0 c -0.82,0 -1.27,-0.499 -1.27,-1.461 0,-0.964 0.372,-1.514 1.27,-1.514 0.898,0 1.25,0.534 1.25,1.479 C 1.25,-0.55 0.82,0 0,0" />
        </g>
        <g transform="translate(258.5137,24.5166)" id="g130">
          <path id="path132" style="fill:#ffffff;fill-opacity:1;fill-rule:nonzero;stroke:none" d="m 0,0 h -1.27 v -2.598 c 0,-0.308 0.215,-0.532 0.665,-0.532 H 0 v -1.564 h -1.875 c -1.035,0 -1.758,0.618 -1.758,1.426 V 0 H -4.57 v 1.101 h 0.937 V 3.026 H -1.27 V 1.101 H 0 Z m -5.43,-0.843 v -3.756 h -2.343 v 3.171 c 0,0 0.195,1.117 -1.055,1.117 -1.251,0 -1.211,-1.117 -1.211,-1.117 v -3.171 h -2.364 V 3.25 h 2.364 V 0.292 c 0,0 0.684,1.031 2.266,1.031 2.421,0 2.343,-2.166 2.343,-2.166 m -8.282,-3.756 c 0,-1.421 -0.664,-2.348 -3.516,-2.348 -2.851,0 -3.105,1.306 -3.105,1.444 h 2.305 c 0,0 0.097,-0.309 0.82,-0.309 0.723,0 1.191,0.309 1.191,0.98 v 1.203 c 0,0 -0.234,-0.36 -0.683,-0.636 -0.449,-0.275 -0.86,-0.429 -1.426,-0.429 -0.566,0 -1.407,0.206 -1.935,0.825 -0.527,0.618 -0.78,1.186 -0.78,2.167 0,0.979 0.528,3.025 2.695,3.025 1.543,0 2.344,-1.135 2.344,-1.135 l -0.019,0.913 h 2.109 z m -8.341,6.525 h -2.363 v 1.495 h 2.363 z m 0,-6.525 h -2.363 V 1.1 h 2.363 z m -3.984,0 h -2.344 V 3.25 h 2.344 z m -2.779,-4.589 H 4.12 v 32.479 h -32.936 z" />
        </g>
        <g transform="translate(189.8906,19.5918)" id="g134">
          <path id="path136" style="fill:#ffffff;fill-opacity:1;fill-rule:nonzero;stroke:none" d="m 0,0 c -1.231,0 -2.565,0.285 -2.565,2.351 0,2.066 1.334,2.3 2.565,2.3 1.23,0 2.54,-0.335 2.54,-2.3 C 2.54,0.386 1.23,0 0,0 m 0,6.382 c -3.925,0 -6.132,-1.562 -6.132,-4.031 0,-2.468 2.258,-4.098 6.132,-4.098 3.874,0 6.054,1.747 6.054,4.098 0,2.352 -2.129,4.031 -6.054,4.031" />
        </g>
        <g transform="translate(202.8916,22.3457)" id="g138">
          <path id="path140" style="fill:#ffffff;fill-opacity:1;fill-rule:nonzero;stroke:none" d="m 0,0 h -2.335 v 1.746 l 2.283,0.008 C 0.607,1.754 1.18,1.713 1.18,0.874 1.18,0.033 0.63,0 0,0 m 4.616,1.26 c 0,1.612 -1.743,2.135 -3.95,2.135 h -6.489 v -7.634 h 3.463 v 2.711 h 2.026 L 1.204,-4.239 H 4.616 L 2.308,-0.84 c 0,0 2.308,0.487 2.308,2.1" />
        </g>
        <g transform="translate(214.8643,23.7578)" id="g142">
          <path id="path144" style="fill:#ffffff;fill-opacity:1;fill-rule:nonzero;stroke:none" d="m 0,0 3.438,-0.001 c 0,0 -0.05,0.906 -1.307,1.545 -1.258,0.638 -2.694,0.706 -3.668,0.706 -0.976,0 -2.464,-0.101 -3.464,-0.604 -1.001,-0.504 -1.411,-1.194 -1.411,-1.782 0,-0.588 0.23,-0.906 0.487,-1.192 0.257,-0.285 1.257,-0.69 1.667,-0.789 0.411,-0.102 2.468,-0.513 3.156,-0.655 1.183,-0.245 1.334,-0.386 1.334,-0.756 0,-0.369 0.015,-0.705 -1.437,-0.705 -1.423,0 -1.719,0.201 -1.719,0.822 h -3.642 c 0,0 0.129,-0.806 0.795,-1.377 0.667,-0.57 2.18,-1.108 4.31,-1.108 2.129,0 3.437,0.419 4.002,0.739 0.564,0.319 1.231,0.856 1.231,1.882 0,1.023 -0.718,1.393 -1.282,1.644 -0.564,0.252 -1.36,0.472 -2.437,0.656 -1.078,0.185 -2.034,0.381 -2.438,0.521 -0.469,0.162 -0.461,0.285 -0.461,0.453 0,0.433 0.037,0.621 1.309,0.621 C -0.342,0.62 0,0.437 0,0" />
        </g>
        <g transform="translate(219.7236,25.7715)" id="g146">
          <path id="path148" style="fill:#ffffff;fill-opacity:1;fill-rule:nonzero;stroke:none" d="M 0,0 H 9.261 V -1.662 H 3.54 V -2.955 H 8.389 V -4.567 H 3.54 V -6.012 H 9.491 V -7.665 H 0 Z" />
        </g>
        <g transform="translate(175.001,25.7402)" id="g150">
          <path id="path152" style="fill:#ffffff;fill-opacity:1;fill-rule:nonzero;stroke:none" d="M 0,0 H -3.283 V -7.634 H 0 v 4.482 L 4.311,-7.634 H 7.619 V 0 H 4.208 v -4.443 z" />
        </g>
      </g>
    </g><text id="text116-7-2-3" style="font-style:normal;font-variant:normal;font-weight:bold;font-stretch:normal;font-size:10.6667px;font-family:Verdana;-inkscape-font-specification:'Verdana, Bold';font-variant-ligatures:normal;font-variant-caps:normal;font-variant-numeric:normal;font-variant-east-asian:normal;writing-mode:lr-tb;fill:#ffffff;fill-opacity:1;fill-rule:nonzero;stroke:none;stroke-width:1.33333" x="289.90399" y="185.17491" inkscape:label="textFocus">
      <tspan sodipodi:role="line" id="tspan1098">Focus</tspan>
    </text><text id="text116-7-2" style="font-style:normal;font-variant:normal;font-weight:bold;font-stretch:normal;font-size:10.6667px;font-family:Verdana;-inkscape-font-specification:'Verdana, Bold';font-variant-ligatures:normal;font-variant-caps:normal;font-variant-numeric:normal;font-variant-east-asian:normal;writing-mode:lr-tb;fill:#ffffff;fill-opacity:1;fill-rule:nonzero;stroke:none;stroke-width:1.33333" x="37.514637" y="354.61224" inkscape:label="textLamp">
      <tspan sodipodi:role="line" id="tspan1096">Lamp</tspan>
    </text>
    <text id="text116-7" style="font-style:normal;font-variant:normal;font-weight:bold;font-stretch:normal;font-size:10.6667px;font-family:Verdana;-inkscape-font-specification:'Verdana, Bold';font-variant-ligatures:normal;font-variant-caps:normal;font-variant-numeric:normal;font-variant-east-asian:normal;writing-mode:lr-tb;fill:#ffffff;fill-opacity:1;fill-rule:nonzero;stroke:none;stroke-width:1.33333"
      x="31.403107" y="181.26718" inkscape:label="textVS">
      <tspan sodipodi:role="line" id="tspan1094">Vertical</tspan>
    </text><text id="text116-7-2"
      style="font-style:normal;font-variant:normal;font-weight:bold;font-stretch:normal;font-size:10.6667px;font-family:Verdana;-inkscape-font-specification:'Verdana, Bold';font-variant-ligatures:normal;font-variant-caps:normal;font-variant-numeric:normal;font-variant-east-asian:normal;writing-mode:lr-tb;fill:#ffffff;fill-opacity:1;fill-rule:nonzero;stroke:none;stroke-width:1.33333"
      x="31.403107" y="191.26718" inkscape:label="textVS2">
      <tspan sodipodi:role="line" id="tspan1094-2">Speed</tspan>
    </text>
    <text id="text116" style="font-style:normal;font-variant:normal;font-weight:bold;font-stretch:normal;font-size:10.6667px;font-family:Verdana;-inkscape-font-specification:'Verdana, Bold';font-variant-ligatures:normal;font-variant-caps:normal;font-variant-numeric:normal;font-variant-east-asian:normal;writing-mode:lr-tb;fill:#ffffff;fill-opacity:1;fill-rule:nonzero;stroke:none;stroke-width:1.33333" x="131.03603" y="19.810144" inkscape:label="textHS">
      <tspan sodipodi:role="line" id="tspan1090">Horizontal Speed</tspan>
    </text>
    <g id="Lamp" inkscape:label="Lamp">
      <path id="path100" style="fill:#ffffff;fill-opacity:1;fill-rule:nonzero;stroke:none" d="M 0,0 C 0,-12.427 -10.072,-22.5 -22.5,-22.5 -34.926,-22.5 -45,-12.427 -45,0 -45,12.426 -34.926,22.5 -22.5,22.5 -10.072,22.5 0,12.426 0,0" transform="matrix(1.3333333,0,0,-1.3333333,85.385465,310.00147)" />
      <path id="path104" style="fill:none;stroke:#2b2b2a;stroke-width:2;stroke-linecap:butt;stroke-linejoin:miter;stroke-miterlimit:10;stroke-dasharray:none;stroke-opacity:1" d="M 0,0 C 0,10.586 8.582,19.167 19.165,19.167 29.75,19.167 38.332,10.586 38.332,0 38.332,-10.584 29.75,-19.165 19.165,-19.165 8.582,-19.165 0,-10.584 0,0 Z" transform="matrix(1.3333333,0,0,-1.3333333,29.830666,310.0028)" />
    </g>
    <g id="Vert_Speed_Pluss" inkscape:label="Vert_Speed_Pluss">
      <path id="path88" style="fill:#fefefe;fill-opacity:1;fill-rule:nonzero;stroke:none" d="m 0,0 c 0,6.627 5.372,12 12,12 h 15.685 c 6.627,0 12,-5.373 12,-12 v -15.684 c 0,-6.628 -5.373,-12.001 -12,-12.001 H 12 c -6.628,0 -12,5.373 -12,12.001 z" transform="matrix(1.3333333,0,0,-1.3333333,28.739599,121.89601)" />
      <path id="path92" style="fill:none;stroke:#fefefe;stroke-width:1;stroke-linecap:butt;stroke-linejoin:miter;stroke-miterlimit:10;stroke-dasharray:none;stroke-opacity:1" d="m 0,0 c 0,6.627 5.372,12 12,12 h 15.685 c 6.627,0 12,-5.373 12,-12 v -15.684 c 0,-6.628 -5.373,-12.001 -12,-12.001 H 12 c -6.628,0 -12,5.373 -12,12.001 z" transform="matrix(1.3333333,0,0,-1.3333333,28.739599,121.89601)" />
      <path id="path96" style="fill:#2b2b2a;fill-opacity:1;fill-rule:nonzero;stroke:none" d="m 0,0 h -6.508 v 7.852 h -6.318 L -3.416,17.96 6.326,7.835 -0.018,7.828 Z" transform="matrix(1.3333333,0,0,-1.3333333,59.529999,144.32694)" />
    </g>
    <g id="FocusPluss" inkscape:label="FocusPluss">
      <path id="path1240" style="fill:#fefefe;fill-opacity:1;fill-rule:nonzero;stroke:none" d="m 0,0 c 0,6.627 5.372,12 12,12 h 15.685 c 6.627,0 12,-5.373 12,-12 v -15.684 c 0,-6.628 -5.373,-12.001 -12,-12.001 H 12 c -6.628,0 -12,5.373 -12,12.001 z" inkscape:label="path180" transform="matrix(1.3333333,0,0,-1.3333333,281.62893,121.89601)" />
      <path id="path80" style="fill:none;stroke:#fefefe;stroke-width:1;stroke-linecap:butt;stroke-linejoin:miter;stroke-miterlimit:10;stroke-dasharray:none;stroke-opacity:1" d="m 0,0 c 0,6.627 5.372,12 12,12 h 15.685 c 6.627,0 12,-5.373 12,-12 v -15.684 c 0,-6.628 -5.373,-12.001 -12,-12.001 H 12 c -6.628,0 -12,5.373 -12,12.001 z" transform="matrix(1.3333333,0,0,-1.3333333,281.62893,121.89601)" />
      <path id="path84" style="fill:#2b2b2a;fill-opacity:1;fill-rule:nonzero;stroke:none" d="m 0,0 h -6.508 v 7.852 h -6.318 L -3.416,17.96 6.326,7.835 -0.018,7.828 Z" transform="matrix(1.3333333,0,0,-1.3333333,312.41933,144.32694)" />
    </g>
    <g id="Hor_Speed_Pluss" inkscape:label="Hor_Speed_Pluss">
      <path id="path821" style="fill:#fefefe;fill-opacity:1;fill-rule:nonzero;stroke:none" d="m 0,0 c 0,6.627 5.372,12 12,12 h 15.685 c 6.627,0 12,-5.373 12,-12 v -15.684 c 0,-6.628 -5.373,-12.001 -12,-12.001 H 12 c -6.628,0 -12,5.373 -12,12.001 z" inkscape:label="path168" transform="matrix(1.3333333,0,0,-1.3333333,207.40879,45.007341)" />
      <path id="path68" style="fill:#ffffff;stroke:#fefefe;stroke-width:1;stroke-linecap:butt;stroke-linejoin:miter;stroke-miterlimit:10;stroke-dasharray:none;stroke-opacity:1" d="m 0,0 c 0,6.627 5.372,12 12,12 h 15.685 c 6.627,0 12,-5.373 12,-12 v -15.684 c 0,-6.628 -5.373,-12.001 -12,-12.001 H 12 c -6.628,0 -12,5.373 -12,12.001 z" transform="matrix(1.3333333,0,0,-1.3333333,207.40879,45.007341)" />
      <path id="path72" style="fill:#2b2b2a;fill-opacity:1;fill-rule:nonzero;stroke:none" d="m 0,0 h -6.508 v 7.852 h -6.318 L -3.416,17.96 6.326,7.835 -0.018,7.828 Z" transform="matrix(1.3333333,0,0,-1.3333333,238.19919,67.438274)" />
    </g>
    <g id="FocusMinus" inkscape:label="FocusMinus">
      <path id="path1248" style="fill:#fefefe;fill-opacity:1;fill-rule:nonzero;stroke:none" d="m 0,0 c 0,-6.627 -5.372,-12 -12,-12 h -15.685 c -6.627,0 -12,5.373 -12,12 v 15.684 c 0,6.628 5.373,12.001 12,12.001 H -12 c 6.628,0 12,-5.373 12,-12.001 z" transform="matrix(1.3333333,0,0,-1.3333333,334.54159,243.69814)" inkscape:label="path156" />
      <path id="path56" style="fill:none;stroke:#fefefe;stroke-width:1;stroke-linecap:butt;stroke-linejoin:miter;stroke-miterlimit:10;stroke-dasharray:none;stroke-opacity:1" d="m 0,0 c 0,-6.627 -5.372,-12 -12,-12 h -15.685 c -6.627,0 -12,5.373 -12,12 v 15.684 c 0,6.628 5.373,12.001 12,12.001 H -12 c 6.628,0 12,-5.373 12,-12.001 z" transform="matrix(1.3333333,0,0,-1.3333333,334.54159,243.69814)" />
      <path id="path60" style="fill:#2b2b2a;fill-opacity:1;fill-rule:nonzero;stroke:none" d="m 0,0 h 6.508 v -7.852 h 6.318 l -9.41,-10.108 -9.742,10.125 6.344,0.007 z" transform="matrix(1.3333333,0,0,-1.3333333,303.75133,221.26707)" />
    </g>
    <g id="Vert_Speed_Minus" inkscape:label="Vert_Speed_Minus">
      <path id="path40" style="fill:#fefefe;fill-opacity:1;fill-rule:nonzero;stroke:none" d="m 0,0 c 0,-6.627 -5.372,-12 -12,-12 h -15.685 c -6.627,0 -12,5.373 -12,12 v 15.684 c 0,6.628 5.373,12.001 12,12.001 H -12 c 6.628,0 12,-5.373 12,-12.001 z" transform="matrix(1.3333333,0,0,-1.3333333,81.652398,243.69814)" />
      <path id="path44" style="fill:none;stroke:#fefefe;stroke-width:1;stroke-linecap:butt;stroke-linejoin:miter;stroke-miterlimit:10;stroke-dasharray:none;stroke-opacity:1" d="m 0,0 c 0,-6.627 -5.372,-12 -12,-12 h -15.685 c -6.627,0 -12,5.373 -12,12 v 15.684 c 0,6.628 5.373,12.001 12,12.001 H -12 c 6.628,0 12,-5.373 12,-12.001 z" transform="matrix(1.3333333,0,0,-1.3333333,81.652398,243.69814)" />
      <path id="path48" style="fill:#2b2b2a;fill-opacity:1;fill-rule:nonzero;stroke:none" d="m 0,0 h 6.508 v -7.852 h 6.318 l -9.41,-10.108 -9.742,10.125 6.344,0.007 z" transform="matrix(1.3333333,0,0,-1.3333333,50.861999,221.26707)" />
    </g>
    <g id="Hor_Speed_Minus" inkscape:label="Hor_Speed_Minus">
      <path id="path813" style="fill:#fefefe;fill-opacity:1;fill-rule:nonzero;stroke:none" d="m 0,0 c 0,-6.627 -5.372,-12 -12,-12 h -15.685 c -6.627,0 -12,5.373 -12,12 v 15.684 c 0,6.628 5.373,12.001 12,12.001 H -12 c 6.628,0 12,-5.373 12,-12.001 z" inkscape:label="path132" transform="matrix(1.3333333,0,0,-1.3333333,158.5404,66.362807)" />
      <path id="path32" style="fill:none;stroke:#fefefe;stroke-width:1;stroke-linecap:butt;stroke-linejoin:miter;stroke-miterlimit:10;stroke-dasharray:none;stroke-opacity:1" d="m 0,0 c 0,-6.627 -5.372,-12 -12,-12 h -15.685 c -6.627,0 -12,5.373 -12,12 v 15.684 c 0,6.628 5.373,12.001 12,12.001 H -12 c 6.628,0 12,-5.373 12,-12.001 z" transform="matrix(1.3333333,0,0,-1.3333333,158.5404,66.362807)" />
      <path id="path36" style="fill:#2b2b2a;fill-opacity:1;fill-rule:nonzero;stroke:none" d="m 0,0 h 6.508 v -7.852 h 6.318 l -9.41,-10.108 -9.742,10.125 6.344,0.007 z" transform="matrix(1.3333333,0,0,-1.3333333,127.75,43.931741)" />
    </g>
  </g>
</svg>